HIERARCHY
ROOT Hips
{
	OFFSET 0.00000 0.00000 0.00000
	CHANNELS 6 Xposition Yposition Zposition Zrotation Yrotation Xrotation 
	JOINT LHipJoint
	{
		OFFSET 0 0 0
		CHANNELS 3 Zrotation Yrotation Xrotation
		JOINT LeftHip
		{
			OFFSET 1.85590 -1.73949 0.84976
			CHANNELS 3 Zrotation Yrotation Xrotation
			JOINT LeftKnee
			{
				OFFSET 2.36836 -6.50702 0.00000
				CHANNELS 3 Zrotation Yrotation Xrotation
				JOINT LeftAnkle
				{
					OFFSET 2.53268 -6.95849 0.00000
					CHANNELS 3 Zrotation Yrotation Xrotation
					JOINT LeftToe
					{
						OFFSET 0.15935 -0.43781 1.94506
						CHANNELS 3 Zrotation Yrotation Xrotation
						End Site
						{
							OFFSET 0.00000 -0.00000 1.00661
						}
					}
				}
			}
		}
	}
	JOINT RHipJoint
	{
		OFFSET 0 0 0
		CHANNELS 3 Zrotation Yrotation Xrotation
		JOINT RightHip
		{
			OFFSET -1.68297 -1.73949 0.84976
			CHANNELS 3 Zrotation Yrotation Xrotation
			JOINT RightKnee
			{
				OFFSET -2.44709 -6.72334 0.00000
				CHANNELS 3 Zrotation Yrotation Xrotation
				JOINT RightAnkle
				{
					OFFSET -2.43843 -6.69953 0.00000
					CHANNELS 3 Zrotation Yrotation Xrotation
					JOINT RightToe
					{
						OFFSET -0.20854 -0.57295 2.02172
						CHANNELS 3 Zrotation Yrotation Xrotation
						End Site
						{
							OFFSET -0.00000 -0.00000 1.05594
						}
					}
				}
			}
		}
	}
	JOINT lowerback
	{
		OFFSET 0 0 0
		CHANNELS 3 Zrotation Yrotation Xrotation
		JOINT Chest
		{
			OFFSET -0.01560 2.23971 -0.03712
			CHANNELS 3 Zrotation Yrotation Xrotation
			JOINT Chest2
			{
				OFFSET 0.05490 2.19225 -0.19086
				CHANNELS 3 Zrotation Yrotation Xrotation
				JOINT lowerneck
				{
					OFFSET 0 0 0
					CHANNELS 3 Zrotation Yrotation Xrotation
					JOINT Neck
					{
						OFFSET -0.12403 1.43168 0.27585
						CHANNELS 3 Zrotation Yrotation Xrotation
						JOINT Head
						{
							OFFSET 0.17855 1.46173 -0.32578
							CHANNELS 3 Zrotation Yrotation Xrotation
							End Site
							{
								OFFSET 0.07217 1.51590 -0.14537
							}
						}
					}
				}
				JOINT LeftCollar
				{
					OFFSET 0 0 0
					CHANNELS 3 Zrotation Yrotation Xrotation
					JOINT LeftShoulder
					{
						OFFSET 3.27650 0.85634 0.05396
CHANNELS 3 Zrotation Xrotation Yrotation
						JOINT LeftElbow
						{
OFFSET 0 -4.967550 0.000000
CHANNELS 3 Zrotation Xrotation Yrotation
							JOINT LeftWrist
							{
OFFSET 0 -3.357510 0.000000
CHANNELS 3 Zrotation Xrotation Yrotation
								JOINT lhand
								{
									OFFSET 0 0 0
CHANNELS 3 Zrotation Xrotation Yrotation
									JOINT LFingers
									{
OFFSET 0 -0.796970 0.000000
CHANNELS 3 Zrotation Xrotation Yrotation
										End Site
										{
OFFSET 0 -0.642540 0.000000
										}
									}
								}
								JOINT LThumb
								{
OFFSET 0 0.000000 0.000000
CHANNELS 3 Zrotation Xrotation Yrotation
									End Site
									{
OFFSET 0 -0.652350 0.652350
									}
								}
							}
						}
					}
				}
				JOINT RightCollar
				{
					OFFSET 0 0 0
					CHANNELS 3 Zrotation Yrotation Xrotation
					JOINT RightShoulder
					{
						OFFSET -3.24434 1.02034 0.34688
CHANNELS 3 Zrotation Xrotation Yrotation
						JOINT RightElbow
						{
OFFSET 0 -5.218590 -0.000000
CHANNELS 3 Zrotation Xrotation Yrotation
							JOINT RightWrist
							{
OFFSET 0 -3.365040 0.000000
CHANNELS 3 Zrotation Xrotation Yrotation
								JOINT rhand
								{
									OFFSET 0 0 0
CHANNELS 3 Zrotation Xrotation Yrotation
									JOINT RFingers
									{
OFFSET 0 -0.620440 0.000000
CHANNELS 3 Zrotation Xrotation Yrotation
										End Site
										{
OFFSET 0 -0.500220 0.000000
										}
									}
								}
								JOINT RThumb
								{
OFFSET 0 0.000000 0.000000
CHANNELS 3 Zrotation Xrotation Yrotation
									End Site
									{
OFFSET 0 -0.507860 0.507860
									}
								}
							}
						}
					}
				}
			}
		}
	}
}
MOTION
Frames: 16
Frame Time: .0083333
7.4882 15.9816 -35.4705 3.6654 6.4363 6.8092 0.0000 0.0000 0.0000 -28.0774 7.9476 7.4774 0.0000 -0.0000 -0.0000 0.3085 -7.3416 -10.4250 0.0800 -1.8240 -5.0195 0.0000 0.0000 0.0000 6.3311 20.9635 -35.3525 -2.0244 -8.9168 25.5354 -1.3777 -4.0963 -23.9827 -0.5565 4.7787 -13.2784 -4.4228 -3.4470 -5.2907 2.1576 -4.3982 -1.2681 4.3821 -2.2284 2.1545 -11.5654 -1.9740 -22.1525 8.7832 -0.9708 18.8967 4.8875 -0.2637 9.7370 -0.0000 0.0000 0.0000 7.3221 -21.0841 -53.4598 19.7750 -30.3703 5.4171 16.713 -15.3603 24.8837 0.0 0.0 0.0 -7.1250 0.0 0.0 -7.8095 4.3438 -7.2647 -0.0000 0.0000 0.0000 -11.8711 17.3196 40.3487 -15.3989 -24.6989 -3.3909 -28.0327 1.3658 24.509 0.0 0.0 0.0 7.1250 0.0 -0.0 1.5771 57.2898 -0.4748
7.4850 15.9728 -35.2561 3.4296 6.3038 6.8302 0.0000 0.0000 0.0000 -27.6670 8.3581 8.1986 0.0000 0.0000 0.0000 0.3520 -7.4167 -11.0273 0.1103 -2.1412 -5.8961 0.0000 0.0000 0.0000 5.0569 23.9816 -35.1567 -1.8600 -8.5682 24.4536 -1.6409 -5.1586 -26.5212 -0.5717 4.8422 -13.4591 -4.3399 -3.4555 -5.5173 2.3353 -4.4095 -1.2344 4.5047 -2.2389 2.3251 -11.2619 -1.9414 -22.7091 8.1905 -0.8389 19.4002 4.6626 -0.2502 9.9980 -0.0000 0.0000 0.0000 7.1421 -21.5145 -53.0938 20.2711 -30.9676 5.6702 17.181 -15.2227 24.667 0.0 0.0 0.0 -7.1250 0.0 0.0 -7.5067 4.4939 -6.9566 -0.0000 0.0000 0.0000 -11.8934 17.5827 39.2538 -14.7812 -23.8405 -3.137 -28.4449 1.7297 22.7942 0.0 0.0 0.0 7.1250 0.0 -0.0 0.6245 55.5238 -0.1613
7.4798 15.9565 -35.0437 3.3358 6.2030 6.8379 0.0000 0.0000 0.0000 -27.3952 8.7533 9.0002 0.0000 0.0000 0.0000 0.3973 -7.3984 -11.6054 0.1622 -2.5949 -7.1528 0.0000 0.0000 0.0000 3.5911 26.9233 -35.2589 -1.7916 -8.4177 23.9903 -1.8918 -6.2064 -28.8194 -0.5811 4.8810 -13.5695 -4.3107 -3.4307 -5.7340 2.5004 -4.3741 -1.2562 4.6517 -2.2238 2.4305 -11.9351 -1.9939 -22.6651 8.4775 -0.7632 19.6249 4.8987 -0.2376 10.0662 -0.0000 -0.0000 0.0000 6.7197 -21.837 -52.6528 20.6686 -31.4395 5.8761 17.1645 -15.0677 25.2075 0.0 0.0 0.0 -7.1250 0.0 0.0 -7.5587 3.9474 -7.0835 -0.0000 -0.0000 0.0000 -11.9861 18.0344 38.0201 -14.2520 -23.0938 -2.9262 -29.0202 2.4849 21.7706 0.0 0.0 0.0 7.1250 0.0 -0.0 -0.2493 54.5265 0.0584
7.4741 15.9558 -34.8295 3.4932 6.1787 6.8785 0.0000 0.0000 0.0000 -27.3689 8.9945 9.7038 0.0000 -0.0000 -0.0000 0.4055 -7.1950 -11.6651 0.1867 -2.7827 -7.6744 0.0000 0.0000 0.0000 1.7463 29.9491 -35.2029 -1.7287 -8.2765 23.5571 -2.2619 -7.2592 -31.7293 -0.5203 4.6228 -12.8357 -4.4284 -3.5058 -5.9917 2.3914 -4.4543 -1.2601 4.5816 -2.2672 2.5795 -12.3746 -1.9447 -22.3095 9.1286 -0.7447 19.5249 5.2069 -0.1887 9.9664 -0.0000 -0.0000 0.0000 6.9508 -22.146 -52.3059 21.0442 -31.88 6.0733 16.3762 -15.3725 26.1974 0.0 0.0 0.0 -7.1250 0.0 0.0 -8.1149 3.0653 -7.7486 -0.0000 -0.0000 0.0000 -11.7096 18.4913 37.3216 -13.8453 -22.5131 -2.7686 -30.2636 3.397 22.3108 0.0 0.0 0.0 7.1250 0.0 -0.0 -1.4742 55.386 0.3759
7.4684 15.9395 -34.6131 3.6960 6.1209 7.0220 0.0000 0.0000 0.0000 -27.3759 9.1894 10.2729 0.0000 -0.0000 -0.0000 0.3950 -7.1530 -11.5222 0.1927 -2.8272 -7.7981 0.0000 0.0000 0.0000 1.2769 29.9331 -35.6732 -1.6938 -8.1968 23.3135 -2.5714 -5.8150 -32.7690 -0.5396 4.7066 -13.0737 -4.5462 -3.5894 -6.3368 2.1400 -4.5363 -1.1977 4.3549 -2.3143 2.8347 -11.8131 -1.7790 -22.3406 9.1102 -0.6947 19.4661 5.1114 -0.1229 9.9415 -0.0000 0.0000 0.0000 7.3928 -22.5804 -51.7004 21.4765 -32.3803 6.3032 15.4465 -15.3695 27.1159 0.0 0.0 0.0 -7.1250 0.0 0.0 -8.7444 2.2816 -8.49 -0.0000 0.0000 0.0000 -11.0777 18.6253 36.1892 -13.3403 -21.7838 -2.5782 -31.2505 3.4705 21.1037 0.0 0.0 0.0 7.1250 0.0 -0.0 -2.7840 54.2548 0.6336
7.4644 15.9035 -34.4025 3.8564 5.9031 7.0318 0.0000 0.0000 0.0000 -27.3400 9.6026 10.9309 0.0000 -0.0000 -0.0000 0.3957 -7.2107 -11.5440 0.2434 -3.1751 -8.7665 0.0000 0.0000 0.0000 1.0407 30.1025 -35.9599 -1.6813 -8.1681 23.2257 -2.4593 -5.4283 -31.9278 -0.7225 5.4316 -15.1437 -4.7526 -3.6329 -6.4034 2.0857 -4.5759 -1.1653 4.4047 -2.3384 2.9214 -11.3249 -1.5774 -22.5931 8.7493 -0.4716 19.6859 4.9404 -0.0251 10.0366 -0.0000 -0.0000 0.0000 7.4868 -22.8619 -51.327 21.9824 -32.9571 6.5762 16.1136 -15.9044 26.8943 0.0 0.0 0.0 -7.1250 0.0 0.0 -8.3284 2.4028 -8.0586 -0.0000 -0.0000 0.0000 -10.8126 18.6162 34.363 -12.7176 -20.8721 -2.3517 -30.2191 3.7136 19.6135 0.0 0.0 0.0 7.1250 0.0 -0.0 -1.9424 52.3803 0.353
7.4588 15.8711 -34.1922 3.8260 5.6441 6.9495 0.0000 0.0000 0.0000 -27.0759 10.1339 11.7294 0.0000 -0.0000 -0.0000 0.3944 -7.1180 -11.5070 0.3054 -3.5531 -9.8226 0.0000 0.0000 0.0000 1.1910 30.3738 -36.0607 -1.7071 -8.2274 23.4068 -2.3230 -5.8685 -31.3418 -0.7868 5.6624 -15.8079 -4.9197 -3.7280 -6.3040 2.2802 -4.7026 -1.2224 4.6959 -2.4021 2.8510 -11.4044 -1.4177 -22.7642 8.5386 -0.1594 19.9671 4.9341 0.0846 10.1325 -0.0000 -0.0000 0.0000 7.2931 -22.8642 -50.8882 22.3741 -33.3973 6.7906 16.8166 -16.4016 26.253 0.0 0.0 0.0 -7.1250 0.0 0.0 -7.8541 2.9414 -7.5126 -0.0000 -0.0000 0.0000 -11.1228 18.7795 33.1904 -12.1838 -20.0797 -2.165 -29.2231 4.2194 18.5927 0.0 0.0 0.0 7.1250 0.0 -0.0 -1.0849 51.0558 0.1619
7.4487 15.8524 -33.9728 3.9596 5.4294 7.0125 0.0000 0.0000 0.0000 -26.9422 10.5729 12.5399 0.0000 0.0000 0.0000 0.3785 -7.1234 -11.3043 0.3229 -3.6524 -10.1007 0.0000 0.0000 0.0000 2.6342 27.6848 -36.5694 -1.7530 -8.3314 23.7251 -1.9848 -4.5668 -28.5624 -0.8449 5.8627 -16.3866 -5.2249 -3.8605 -6.4040 2.4064 -4.8590 -1.3471 4.9806 -2.4806 2.8323 -11.5742 -1.2832 -22.5801 8.4019 0.0996 19.9443 4.9451 0.1720 10.0615 -0.0000 -0.0000 0.0000 6.9996 -22.6219 -50.2253 22.6801 -33.7371 6.9598 16.9625 -16.2431 26.3739 0.0 0.0 0.0 -7.1250 0.0 0.0 -7.7763 2.7962 -7.4576 -0.0000 -0.0000 0.0000 -11.4641 19.0915 32.4206 -11.7757 -19.4674 -2.0269 -28.9427 5.1452 18.267 0.0 0.0 0.0 7.1250 0.0 -0.0 -0.8539 50.6436 0.1188
7.4332 15.7989 -33.7470 4.4895 5.1124 7.0812 0.0000 0.0000 0.0000 -27.2105 11.0404 13.2875 0.0000 0.0000 0.0000 0.3640 -7.3051 -11.1566 0.3595 -3.8521 -10.6609 0.0000 0.0000 0.0000 3.7602 24.9541 -37.2495 -1.8523 -8.5514 24.4017 -1.6752 -3.0872 -25.7235 -0.9816 6.3066 -17.6766 -4.8397 -3.8011 -7.7586 1.3331 -4.6951 -0.5756 3.5510 -2.4312 4.2497 -10.6093 -1.1995 -22.7118 8.7175 -0.1569 19.3176 4.8423 0.1802 9.8884 0.0000 -0.0000 0.0000 8.6709 -23.5484 -50.1964 23.1409 -34.2425 7.2174 16.7983 -16.8892 27.0751 0.0 0.0 0.0 -7.1250 0.0 0.0 -7.9346 2.1131 -7.7117 0.0000 -0.0000 0.0000 -9.5353 18.1347 30.2325 -11.0889 -18.4244 -1.8039 -29.714 7.7619 18.5716 0.0 0.0 0.0 7.1250 0.0 -0.0 -1.5887 51.1221 0.2397
7.4239 15.7463 -33.5100 4.9299 4.8659 6.9340 0.0000 0.0000 0.0000 -27.3636 11.5234 14.1760 0.0000 -0.0000 -0.0000 0.3391 -7.5297 -10.8868 0.4767 -4.4277 -12.2832 0.0000 0.0000 0.0000 4.9954 22.3973 -37.6542 -2.0037 -8.8737 25.4010 -1.4571 -1.1719 -23.2666 -0.9246 6.1258 -17.1499 -5.2543 -3.7596 -7.9326 1.0897 -4.5810 -0.4461 3.5281 -2.3872 4.4839 -10.0293 -1.1289 -23.0891 8.4017 -0.1583 19.6955 4.6492 0.1859 10.0913 -0.0000 -0.0000 0.0000 8.9362 -23.5332 -50.3333 23.6119 -34.7511 7.4842 16.1312 -17.6787 27.4958 0.0 0.0 0.0 -7.1250 0.0 0.0 -8.3679 1.7944 -8.1904 -0.0000 -0.0000 0.0000 -9.0103 18.0924 28.2308 -10.4154 -17.3867 -1.5968 -30.6901 9.6881 18.2983 0.0 0.0 0.0 7.1250 0.0 -0.0 -2.6265 50.9953 0.3882
7.4201 15.6968 -33.2617 5.1061 4.6847 6.5164 0.0000 0.0000 0.0000 -27.1895 12.1667 15.5074 0.0000 -0.0000 -0.0000 0.2992 -7.5899 -10.3677 0.6001 -4.9588 -13.7912 0.0000 0.0000 0.0000 6.6366 19.6500 -37.7046 -2.1747 -9.2208 26.4886 -1.2368 0.9167 -20.7468 -0.7307 5.4616 -15.2300 -6.3522 -3.8049 -6.6469 1.8637 -4.6742 -1.1823 5.0453 -2.4090 3.1591 -10.3371 -0.9648 -23.0677 7.7490 0.3054 20.7722 4.5664 0.2745 10.4287 0.0000 -0.0000 0.0000 7.4577 -22.0327 -50.3737 24.0043 -35.1688 7.709 16.3098 -18.172 27.4708 0.0 0.0 0.0 -7.1250 0.0 0.0 -8.2596 1.7914 -8.0826 0.0000 -0.0000 0.0000 -10.3759 19.3285 26.7139 -10.0213 -16.7729 -1.4811 -30.1342 10.5908 18.4224 0.0 0.0 0.0 7.1250 0.0 -0.0 -2.0405 51.0324 0.3034
7.4075 15.6466 -33.0233 5.1338 4.2935 6.1793 0.0000 0.0000 0.0000 -26.8827 12.9186 16.5861 0.0000 0.0000 0.0000 0.2625 -7.5807 -9.8518 0.7473 -5.5219 -15.4033 0.0000 0.0000 0.0000 8.0737 17.7344 -37.6204 -2.3223 -9.5074 27.3958 -0.9844 2.3355 -18.1128 -0.7153 5.4048 -15.0668 -5.7079 -3.8040 -7.9019 1.2026 -4.6020 -0.1867 3.8886 -2.4219 4.7875 -9.7429 -0.7411 -23.4804 8.1569 0.3599 20.2773 4.6150 0.4135 10.3167 0.0000 0.0000 0.0000 8.8564 -23.0109 -50.0835 24.3761 -35.5594 7.9242 17.461 -19.5316 27.0119 0.0 0.0 0.0 -7.1250 0.0 0.0 -7.5331 2.0704 -7.3203 0.0000 0.0000 0.0000 -8.9298 17.4392 23.1107 -9.1951 -15.4709 -1.2517 -28.9867 13.856 19.1157 0.0 0.0 0.0 7.1250 0.0 -0.0 -0.7537 51.5928 0.1224
7.3854 15.6079 -32.7967 4.7527 3.9833 6.1873 0.0000 0.0000 0.0000 -26.1642 13.3542 17.1374 0.0000 0.0000 0.0000 0.2241 -7.5652 -9.2880 0.9513 -6.2112 -17.3984 0.0000 0.0000 0.0000 9.3227 17.0796 -37.6850 -2.4611 -9.7669 28.2251 -0.7223 2.4130 -15.4168 -0.9640 6.2515 -17.5158 -5.6219 -3.9286 -8.0173 1.5644 -4.7887 -0.3289 4.1913 -2.5132 4.7491 -9.9799 -0.5223 -23.4519 8.0165 0.7759 20.4971 4.6713 0.5640 10.3470 0.0000 0.0000 0.0000 8.6155 -22.424 -49.5782 24.6753 -35.8703 8.0989 19.3459 -20.6426 26.7524 0.0 0.0 0.0 -7.1250 0.0 0.0 -6.3804 2.0178 -6.1907 0.0000 0.0000 0.0000 -9.199 16.7436 20.2596 -8.3394 -14.1015 -1.0332 -28.3121 16.6831 18.6242 0.0 0.0 0.0 7.1250 0.0 -0.0 -0.1544 50.9265 0.0226
7.3632 15.6033 -32.5707 4.1187 3.8385 6.1986 0.0000 0.0000 0.0000 -25.0980 13.7112 17.9422 0.0000 0.0000 0.0000 0.1756 -7.3670 -8.4653 1.0687 -6.5718 -18.4528 0.0000 0.0000 0.0000 10.5231 16.9076 -37.6751 -2.5845 -9.9899 28.9441 -0.4840 1.6500 -12.6748 -1.2510 7.0911 -19.9855 -6.0146 -4.0311 -6.9245 2.6278 -5.0112 -1.3000 5.6043 -2.5804 3.2786 -10.7631 -0.4493 -23.0491 7.5447 1.2180 21.1695 4.7095 0.6239 10.4720 0.0000 -0.0000 0.0000 7.1974 -20.5767 -49.5789 25.0075 -36.2116 8.2943 20.38 -21.0007 26.8203 0.0 0.0 0.0 -7.1250 0.0 0.0 -5.7683 1.7655 -5.6167 0.0000 -0.0000 0.0000 -10.7714 17.7153 18.6861 -7.9566 -13.4825 -0.942 -26.6049 17.4306 17.5537 0.0 0.0 0.0 7.1250 0.0 -0.0 1.3542 49.4583 -0.1489
7.3433 15.6210 -32.3365 3.7864 3.6890 6.0463 0.0000 0.0000 0.0000 -24.3081 14.2052 19.1413 0.0000 -0.0000 -0.0000 0.1324 -6.9885 -7.5870 1.1463 -6.7986 -19.1201 0.0000 0.0000 0.0000 11.0634 17.0500 -37.4572 -2.6990 -10.1911 29.5977 -0.3102 0.9963 -10.2166 -1.3891 7.4570 -21.0766 -5.6818 -3.9931 -6.9347 2.6387 -4.9846 -1.3241 5.4317 -2.5611 3.2282 -10.9533 -0.4957 -22.7924 7.6496 1.1708 20.8658 4.7559 0.6045 10.3176 -0.0000 0.0000 0.0000 7.464 -20.0004 -49.928 25.4352 -36.6455 8.5483 20.1611 -21.6506 27.0757 0.0 0.0 0.0 -7.1250 0.0 0.0 -5.9270 1.5426 -5.7966 -0.0000 0.0000 0.0000 -10.5719 17.9864 16.7055 -7.7966 -13.2226 -0.905 -23.611 17.3757 15.3202 0.0 0.0 0.0 7.1250 0.0 -0.0 3.8172 46.5894 -0.1499
7.3243 15.6228 -32.0988 3.4228 3.6209 5.8060 0.0000 0.0000 0.0000 -23.5381 14.4289 19.7967 0.0000 0.0000 0.0000 0.0560 -6.3476 -5.7920 0.9548 -6.2222 -17.4306 0.0000 0.0000 0.0000 11.4742 17.3597 -37.1697 -2.8435 -10.4372 30.4046 -0.1931 0.6531 -8.0929 -1.3059 7.2391 -20.4258 -5.3353 -3.9979 -6.7970 2.7197 -5.0259 -1.3620 5.3271 -2.5739 3.0954 -11.0505 -0.4233 -22.7276 7.7298 1.2795 20.8065 4.8134 0.6575 10.2707 0.0000 0.0000 0.0000 7.4396 -19.3207 -49.9652 25.7504 -36.9612 8.7372 20.1232 -22.1103 27.7671 0.0 0.0 0.0 -7.1250 0.0 0.0 -6.0261 0.8409 -5.9703 0.0000 0.0000 0.0000 -10.4556 18.444 15.6905 -7.6070 -12.9138 -0.8622 -28.8218 21.8673 18.4722 0.0 0.0 0.0 7.1250 0.0 -0.0 -0.6973 50.8498 0.1005
